<?xml version="1.0" encoding="UTF-8"?>
<svg width="261px" height="254px" viewBox="0 0 261 254" version="1.1" xmlns="http://www.w3.org/2000/svg" xmlns:xlink="http://www.w3.org/1999/xlink">
    <!-- Generator: Sketch 47.1 (45422) - http://www.bohemiancoding.com/sketch -->
    <title>leaf</title>
    <desc>Created with Sketch.</desc>
    <defs></defs>
    <g id="Page-1" stroke="none" stroke-width="1" fill="none" fill-rule="evenodd">
        <g id="leaf" fill-rule="nonzero" fill="#4FC08D">
            <path d="M118.108122,0.217588025 C118.108122,5.99887799 121.279779,12.5440096 122.284777,18.307807 C123.050349,22.6838616 123.274996,27.0744933 123.496687,31.5001101 L122.293645,31.2785378 C119.166326,30.6633829 123.526246,41.9635744 121.977366,43.6311982 C119.934854,45.8294295 120.416662,47.9926756 120.523074,51.3774853 C119.657002,51.3774853 118.790929,51.3774853 117.921901,51.3774853 C117.942593,53.5203235 117.978063,55.6631617 118.037181,57.8059999 C117.245005,58.0246569 116.455786,58.2462292 115.666567,58.4736325 C115.651787,59.8992758 115.657699,61.3220038 115.62814,62.7476472 C115.62814,64.0187729 115.873478,66.1412031 115.288214,67.3977518 C114.844833,68.3423499 113.777761,67.5493539 113.180674,68.7301015 C111.667264,71.511418 116.609492,79.5871483 112.991497,79.3918148 L111.14703,79.2431281 C111.300735,81.9515589 114.321642,92.1934508 112.876218,93.6220096 C112.326425,94.3450353 110.289825,92.7502972 109.559723,93.289651 C108.95968,93.9193831 109.93512,100.531569 111.144074,103.989265 C112.282087,107.196234 108.433534,105.432401 109.072003,109.820117 C109.580414,113.409007 114.838921,120.344805 110.688869,121.411851 C107.177286,122.219424 111.058353,128.365143 112.086999,130.292239 C113.139291,132.330122 113.026968,132.889884 111.522426,133.522531 C106.621581,135.49919 116.458742,144.414563 115.249788,147.192964 C114.185672,149.985943 112.128381,148.251264 113.961025,152.131696 C114.741377,153.790574 118.347548,158.321146 116.792756,160.044163 C115.276391,161.650562 120.141766,169.554283 120.880735,171.702952 C122.027616,175.046945 122.272953,178.688313 123.150849,182.1256 C125.50964,191.370416 124.809097,202.105015 128.16993,210.944587 C128.415267,211.588896 129.160149,206.414015 129.198575,205.813437 C129.588751,199.857222 129.66856,193.877683 129.712898,187.909805 C129.769059,180.428822 129.624221,172.950754 129.60353,165.466855 C129.597618,164.073281 130.023265,159.431923 129.902074,158.93047 C131.551454,165.22779 130.301117,173.355998 130.312941,179.758274 C130.324764,186.577456 130.315897,193.390806 130.375014,200.207073 C130.39275,202.116677 131.459821,207.241996 130.584882,208.976674 C133.585098,203.691007 133.407745,194.189633 134.279729,188.271318 C134.749713,185.119743 136.470034,181.236395 136.470034,178.259745 C136.470034,173.312267 139.659426,169.006182 139.659426,164.13159 C139.697853,163.612644 139.473206,162.682623 139.207177,162.087876 C137.244474,157.329901 148.018649,149.921803 141.858599,147.06177 C140.05847,146.225043 149.771484,133.872382 145.612564,132.181435 C144.518889,131.735375 144.06664,130.621682 144.817433,130.175622 C147.326973,128.528406 148.329016,120.34189 148.438383,117.508096 C148.027516,117.563489 145.234212,117.388563 145.234212,116.986234 C145.234212,113.164111 148.210781,108.353658 148.701456,104.242907 C148.382222,104.365355 145.612564,104.761853 145.612564,104.543196 C145.612564,100.81145 149,97.0505507 149,93.1001483 C149,91.7007438 146.369269,92.9718696 145.837211,92.0972418 C145.198741,91.0476884 147.306282,86.3509369 147.554576,85.2051744 C147.761487,84.2605764 148.964529,80.5434081 148.068899,79.6133872 C145.985005,77.4443102 145.113021,81.315996 146.324931,76.1586072 C146.791959,74.3189734 147.73784,71.6630202 147.31515,69.7155155 C147.052077,68.4997829 143.723758,71.3627313 143.123715,70.7738152 C142.423172,70.3131779 144.105066,60.4648685 144.21739,58.6252346 C143.575964,58.6252346 142.934539,58.6252346 142.296069,58.6252346 C142.23104,56.6631529 142.940451,50.6398825 141.619173,49.3366871 C141.3561,49.0772141 140.906807,49.0393136 140.226955,49.2987865 L139.207177,49.7069462 C139.221956,47.2638191 140.351102,41.3746584 137.513459,40.2697119 L136.33702,39.7828357 C136.038476,36.8353399 136.694681,28.7042165 134.533934,26.7800353 C134.418655,26.6313485 134.078729,26.7421347 133.854082,26.9666226 C132.787011,28.0220068 128.468473,16.0862523 127.555107,14.3282504 C125.79636,10.9434407 123.821833,7.65775545 121.661087,4.5032644 C121.282734,3.95516429 118.108122,-0.0331386198 118.108122,0.217588025 C118.108122,0.366274757 118.108122,-0.339258361 118.108122,0.217588025 Z" id="Shape"></path>
            <path d="M32.0243034,54.8460792 C31.9923221,60.241639 32.7482425,65.70417 33.7164021,71.0036404 C34.1350657,73.2923128 34.6002475,75.5984559 35.3212793,77.8143334 C36.1469769,80.2951844 34.6816543,81.0347808 35.2834832,83.340924 C35.7050542,85.175356 36.7342689,86.7273438 37.34482,88.4773337 C37.7692984,89.6886412 36.38829,90.308854 36.6790286,91.456102 C37.231432,93.6399497 41.1680328,96.7846903 38.7258284,98.1823529 C36.7051951,99.6120452 43.4532383,104.786308 41.8367316,105.863673 C39.9789119,107.310836 46.2181625,113.390668 47.5817266,114.954303 C38.9177159,113.550817 50.7653144,120.809927 48.1370374,122.85692 C46.997342,123.712988 54.1059011,130.308208 55.1380232,130.873097 C55.8416106,131.242895 55.8416106,131.318602 54.6553971,132.32026 L53.4342949,133.321918 C54.6466749,134.568167 61.3278483,140.589763 61.0283875,140.816883 C60.4410955,140.994503 59.8974143,141.250741 59.3973439,141.597245 C59.3973439,144.270275 65.9157036,148.230318 68.0322807,149.572657 C62.1622681,151.744857 72.8178383,158.098398 75.3298199,159.8513 C74.9169711,160.51519 74.4983075,161.167432 74.0680143,161.819675 C77.2864908,164.763501 80.8102428,167.512238 84.5520488,169.760145 C84.6974181,169.83294 83.1448739,171.818785 84.0432562,172.572941 C86.0290009,174.2414 88.235707,175.659445 90.343562,177.161933 C92.8875248,178.975982 92.8032106,180.740531 94.6290491,182.414814 C98.4086511,185.256728 122.778362,211.142603 122.673696,211.244516 C123.543004,210.373888 103.371559,182.001339 101.11252,177.924823 C100.673505,177.409435 100.426377,176.8329 100.368229,176.189392 C101.286963,175.982655 126.264318,214.700819 126.970813,213.99034 C127.61916,213.556482 117.26305,193.520408 116.103003,190.908526 C113.294468,184.581191 111.425019,178.4868 110.198102,171.661548 C109.823049,169.550495 108.389708,169.943588 108.104784,168.289687 C107.828582,166.685287 108.503096,160.215275 106.22952,159.758122 C100.845041,158.680758 105.636413,147.82849 100.330433,147.82849 L98.8476664,147.793549 C98.5743721,146.104707 98.1179125,137.902175 95.9577246,138.478711 C93.1055788,139.291102 93.2509481,139.36972 92.9921907,136.772398 C92.69273,133.764511 91.5472198,129.979175 90.3261176,128.200067 C89.3986615,126.825699 89.3637728,126.825699 88.28804,127.381852 L87.2152145,127.938006 C86.2354253,124.659322 85.427172,120.891457 83.3629278,118.107779 C82.8076171,117.365271 82.7669137,117.365271 81.6562922,118.442636 C81.3103132,118.885229 80.8771127,119.193879 80.359598,119.368587 C77.7720243,116.774176 76.8969011,111.142761 74.9111563,107.864078 C74.0447553,108.373642 73.1899837,108.903589 72.3555639,109.459742 C71.3786822,106.865331 71.0036294,104.230155 69.352234,101.88907 C68.0148364,100.02552 66.2704047,101.827923 65.165598,99.5538092 C64.7614713,98.7355943 63.9066998,97.3262846 63.2409084,96.4003332 C61.6767346,94.1582495 59.842174,95.5617356 58.6472383,93.0605021 C58.1646122,92.0239024 57.4959133,90.9465375 57.1644713,90.6466224 C56.6091606,90.1283226 56.4986799,90.1283226 56.0538498,90.6466224 C54.5507312,92.4257304 53.2685739,88.4423922 52.7539666,87.61253 C51.7073075,85.920776 51.3351621,86.8176095 50.0413753,86.1304254 C48.4394055,85.2772689 48.0992413,82.164558 46.9013983,80.8134842 C45.9303313,79.7186486 44.392324,80.0214755 43.4328866,78.9004336 C41.4064384,76.5360545 31.9487113,53.0786185 32.1842096,53 C31.9080079,53.1019129 32.0243034,54.7965787 32.0243034,54.8460792 C31.9865074,61.2258263 32.0243034,51.8411048 32.0243034,54.8460792 Z" id="Shape"></path>
            <path d="M233.60352,57.1580026 C228.861608,59.8055737 224.233571,62.7366044 220.026,66.1819535 C218.747085,67.228124 216.580522,70.1708438 214.901581,70.4250807 C213.015328,70.7114626 213.450392,69.7704936 211.578739,71.6436648 C210.574294,72.6138564 209.420935,73.9902427 209.012149,74.6214517 C207.736154,76.5998244 205.373958,75.8809474 203.762175,78.1983027 C202.868686,79.463643 202.013157,80.8049621 201.867162,81.1790119 C201.569332,81.9621786 200.900676,81.9972458 200.637885,81.2520685 C199.405689,78.7886 195.860934,87.4326566 194.906128,87.1725752 C194.611218,87.0586069 194.202433,86.9475608 193.98052,86.9124937 C192.251942,86.5647443 190.543802,95.962745 188.920339,95.962745 C188.126127,95.962745 188.067729,93.3560856 187.098324,93.3560856 C185.655895,93.3560856 183.565249,102.131644 183.150623,101.027028 C182.741838,99.9457907 181.588478,100.354908 180.805946,101.807273 C180.216127,103.014168 178.230597,110.962726 177.421786,110.708489 C177.01008,110.597443 176.344344,110.375351 175.932638,110.261382 C175.334059,110.074357 175.074189,110.299372 174.589486,111.453666 C174.014266,112.792063 172.171811,120.68802 171.579072,119.793807 C169.730777,117.248515 168.355506,123.604439 168.092715,124.530797 C167.975919,124.936992 167.140829,129.846395 166.55685,129.846395 C166.647366,129.846395 164.369847,128.648267 164.250131,128.765157 C162.784343,130.477604 161.975531,141.722475 159.674653,141.167245 C159.265867,141.056199 158.816203,141.094189 158.708167,141.278291 C156.623361,144.644739 156.614601,150.164896 156.103619,154.051507 L154.874342,154.051507 C153.756022,154.051507 153.607107,154.203465 153.271319,155.430815 C152.10044,160.360675 152.132559,164.171307 149.525091,168.376444 C148.254936,170.424951 148.246177,173.580996 147.5746,175.895429 C146.935143,178.11635 144.678063,180.62073 144.678063,182.838729 C144.678063,188.17186 139.36969,195.673312 137.354961,200.55057 C136.598708,202.376985 135.007364,209.352429 134,210.287553 C138.400285,205.880779 141.828243,196.669804 144.867856,191.351283 C147.425686,186.86853 150.065272,182.441301 152.807055,178.066672 C153.469872,177.011734 157.265738,169.323258 158.673128,169.323258 C156.964988,169.323258 148.596564,186.728262 147.419846,188.756313 C146.263567,190.749297 133.395581,210.272942 135.11832,212 C134.788372,211.503215 145.475195,198.934558 146.392042,197.748119 C149.685686,193.49038 153.674265,189.790794 156.93287,185.553512 C158.91256,182.976075 167.374421,179.142065 167.374421,175.953875 C167.374421,172.631261 176.531217,172.289356 174.668323,168.651137 C172.980623,165.457103 180.484757,163.20696 182.444008,161.12923 C183.562329,159.974936 183.562329,159.974936 182.890752,158.861553 C180.245326,153.855715 193.262226,154.706094 187.466231,148.174834 C190.800753,146.430243 194.503182,143.925862 196.287239,140.500969 C196.844939,139.460643 196.806981,139.346675 196.062407,138.750533 C193.215508,136.418566 204.019126,131.906591 202.20295,129.180119 C201.864242,128.6132 200.623286,128.616122 200.083105,128.35604 C199.08158,127.879711 203.084759,123.87621 203.473105,123.408648 C205.137446,121.386441 209.28662,117.821279 204.994371,116.406903 C206.848506,114.603866 209.146465,112.678094 210.352382,110.375351 C211.061917,109.034031 211.061917,108.920063 210.463338,107.841748 L209.794682,106.725443 C210.948041,105.074364 213.824139,102.131644 213.377395,100.080215 C212.793416,97.4180324 216.34693,94.4402455 214.113209,92.873912 C213.51755,92.4268057 213.51755,92.3537491 214.224165,91.4595363 C214.635871,90.9393733 215.380444,89.7091002 215.897266,88.7038414 C217.225819,86.2695956 216.177576,87.5407804 215.984863,85.7465104 C215.882667,84.7850855 218.203985,82.7336563 218.60985,82.1667371 C220.399747,79.6915796 218.995277,77.3362349 220.770574,74.6652857 C223.488998,70.5682717 227.842564,65.5770449 234.240058,59.1714424 C239.370317,54.0691697 239.338198,53.9581236 233.60352,57.1580026 C226.797241,60.959868 239.338198,53.9581236 233.60352,57.1580026 Z" id="Shape"></path>
            <path d="M236.552544,158.649579 C234.690158,159.120307 232.702252,158.385157 231.047123,158.919812 C228.577565,159.721794 227.964554,159.58813 226.458299,159.46609 C222.570058,159.146459 216.758132,162.801869 213.675563,164.867844 C214.043369,160.334903 209.629691,163.839215 208.246038,165.794773 C208.231443,165.812207 207.390742,164.321567 206.617181,164.818447 C204.877398,165.937153 203.228107,167.29413 201.69558,168.680164 C200.542535,169.790153 200.542535,169.790153 200.133862,169.014323 C198.426188,166.096969 194.780234,173.419412 193.177648,173.419412 C192.155963,173.419412 193.241868,171.22849 190.77231,172.884757 C189.724354,173.585038 186.440367,178.112168 185.479983,176.641868 C184.995413,175.900906 184.884487,175.860226 183.953294,176.342578 C182.137615,177.377018 169.795663,188.540838 168.852794,187.93354 C166.529191,186.460334 156.741451,200.448525 153.11593,200.448525 C150.643453,200.448525 144.542535,206.896343 142.572143,208.294 C142.166389,208.587479 135.928274,213.660886 136.077148,213.704472 C138.283987,214.335016 146.682235,208.084788 148.783987,206.989327 C149.904921,206.402369 159.578816,200.492111 160.556714,201.296999 C160.565471,201.317339 144.014178,210.232123 142.008757,211.339207 C140.908257,211.94941 136.071309,216 135,216 C139.889491,216 146.086739,212.161529 150.739783,210.653454 C155.7402,209.032056 160.658882,208.160337 165.860717,207.494924 C168.035446,207.213068 175.919933,206.707471 175.919933,204.484586 C175.919933,202.258796 184.402836,205.484158 184.773561,202.078641 L184.884487,200.927971 C187.289825,200.70423 189.695163,200.4863 192.10342,200.262559 C192.10342,199.300762 192.10342,198.336059 192.10342,197.377167 C194.43578,197.339393 196.969558,197.281278 199.16764,196.450239 C201.041701,195.686032 200.411176,193.968744 201.742285,193.53579 C202.734779,193.210348 209.028357,192.402555 209.028357,191.004898 C208.841535,190.746288 208.654712,190.487678 208.470809,190.229068 C207.615513,189.374783 207.764387,189.116173 209.512927,188.633821 C211.877398,187.919012 214.209758,187.090878 216.542118,186.268556 L216.317348,185.045243 C216.0196,183.685361 221.525021,181.956451 222.797748,180.16652 C223.612177,179.021662 225.54754,178.597425 226.688907,177.885521 C228.174729,176.958593 227.535446,175.749808 229.412427,174.860655 C231.648457,173.721608 232.985405,170.449754 235.233111,168.967831 C237.609258,167.401642 240.189741,164.984073 242.694329,163.789818 C248.056714,161.247303 256.256464,161.648294 261,158.498481 C260.550459,158.940152 250.98457,157.955109 249.659299,158.001601 C245.50834,158.149793 240.326939,157.696499 236.552544,158.649579 C234.357381,159.207479 239.048374,158.021941 236.552544,158.649579 Z" id="Shape"></path>
            <path d="M0.583414011,159.777374 C0.174617129,159.961163 -0.085260888,160.147869 0.0256982655,160.147869 C9.55358558,161.419807 17.7412031,165.436915 25.2689057,170.375885 C26.0864995,170.915584 29.6780721,173.579069 29.94963,174.267549 C30.4285063,175.481141 33.3630839,177.394883 33.2550448,178.331333 C33.0331265,180.338428 44.7772769,186.018389 44.7159573,186.245938 C44.6400379,186.546419 44.491119,187.030689 44.4181196,187.36326 C44.0443625,188.579769 50.0799564,190.082173 50.9676296,190.338895 C52.7166963,190.861089 53.2014126,191.494141 52.491858,192.34599 C52.2670197,192.64647 52.1589805,193.014049 52.2670197,193.241597 C52.5298177,193.650018 56.5097474,194.989054 58.5566517,195.362467 C60.5947962,195.709624 59.2866462,197.305381 61.3831902,198.22141 C63.6666128,199.198702 66.4055519,199.242461 68.8641731,199.338732 L68.8641731,200.715692 C68.8641731,203.405433 72.3214267,202.486487 74.123053,202.638186 C77.0576306,202.886155 75.1100055,204.420649 76.6780335,205.362934 C78.313221,206.451083 83.1370242,205.678001 85.1985285,205.698422 C85.268608,206.454 85.3445274,207.209578 85.4204468,207.962238 C99.1063824,208.551531 111.498768,214.047703 124.752547,217 L123.896993,216.104392 C123.707195,215.82725 123.523236,215.54719 123.333438,215.270048 C123.692595,214.966649 125.792059,216.789955 124.676627,215.360484 C122.512924,212.659074 110.167258,207.194991 110.167258,204.359386 C110.167258,203.460861 103.103832,198.518973 102.446837,197.938433 C99.6553382,195.45582 96.8725994,193.620845 94.2387795,190.680217 C93.2343072,189.524971 93.0094689,189.414114 92.343714,189.825452 C90.5362478,190.875676 87.7126293,185.796675 86.1650411,184.507234 C84.5502934,183.232378 83.8378189,184.24176 82.4917091,183.139025 C81.2565586,182.123808 76.873672,176.292147 75.5246423,178.410099 C74.9494067,179.253196 63.2052563,171.000185 61.7189876,169.859525 C61.272231,170.407975 60.8254744,170.950591 60.3787178,171.496124 C59.3479657,170.55384 54.3723237,165.197697 53.3094518,167.111439 C52.5736174,168.47673 48.5265283,163.406481 47.6154952,164.135804 C47.0957392,164.395442 47.7877739,166.510477 47.4665763,166.510477 C45.545231,166.510477 41.6266209,163.456075 39.2701989,162.866783 C37.9124092,162.531295 36.2743017,161.034725 34.8055529,161.3848 C33.5966822,161.676529 34.0989183,162.811354 32.7294488,161.936168 C32.2447325,161.603597 31.0913413,161.084319 30.2007481,160.748831 C29.0736367,160.354997 27.3070501,161.393552 26.5157362,160.970545 C25.2075862,160.273313 23.5169191,159.934907 22.0364903,159.987419 C19.7121881,160.07202 17.6565238,160.057433 15.2825819,159.888231 C11.4486511,159.602336 4.17790659,158.108684 0.583414011,159.777374 C0.174617129,159.961163 1.62584606,159.293104 0.583414011,159.777374 Z" id="Shape"></path>
            <path d="M133,218.082033 C133,220.644692 138.536506,225.46869 144.676027,228.249448 C150.076559,230.671491 156.183565,231.216738 161.137748,234.562831 C165.509607,237.515772 169.207508,241.384154 173,245 L172.852202,242.437341 C172.663021,238.927674 171.533846,236.844258 168.066509,233.478077 C164.11144,229.675699 160.194798,226.823198 155.938221,224.702475 C150.209577,221.849974 136.762932,217.752015 137.664499,219.140959 C137.892108,219.508283 141.847177,221.700749 147.008277,224.335151 C147.71475,224.44707 148.226131,224.762739 148.542418,225.290768 C147.005321,225.041102 133,218.963036 133,218.082033 C133,220.641822 133,217.462173 133,218.082033 Z" id="Shape"></path>
            <path d="M119.868395,219.576589 C113.185375,220.477006 106.742897,223.286424 100.807587,226.408649 C98.7528334,227.490319 83.8160224,234.73166 84.783988,237.795417 C85.2911556,239.222051 80.6773793,244.235737 79.9122807,245.410957 C78.6110335,247.410584 75,251.459538 75,254 C75,252.076382 86.3518605,246.358149 88.4616778,245.139078 C91.6466905,243.303162 93.8463489,243.838151 96.2256896,241.373697 C98.4137556,239.113884 101.152461,237.473839 103.841898,235.895186 C104.580914,236.421404 105.31993,236.938851 106.058945,237.462145 C112.820214,230.416674 121.714485,225.049253 130.362418,220.699187 C130.576877,220.409767 130.788439,220.126194 131,219.836774 C127.928013,216.065547 110.620556,226.177698 107.858666,227.671572 C104.267919,229.615654 100.784402,231.735142 97.4255033,234.068041 C96.1184599,234.977228 88.9659473,241.654347 87.5980438,241.142746 C87.5024065,241.104742 89.3861719,239.236669 89.1804068,239.435462 C94.0984837,234.605952 100.013507,230.773333 106.032862,227.496166 C109.046887,225.850274 112.136262,224.353476 115.289396,223.002851 C117.535424,222.043965 122.094137,221.324801 123.85908,219.541507 C124.227139,219.164385 122.749107,219.205313 119.868395,219.576589 C112.115976,220.620254 122.749107,219.205313 119.868395,219.576589 Z" id="Shape"></path>
        </g>
    </g>
</svg>